<?xml version="1.0" encoding="utf-8"?>
<!-- Generator: Adobe Illustrator 24.0.2, SVG Export Plug-In . SVG Version: 6.00 Build 0)  -->
<svg version="1.1" id="Layer_1" xmlns="http://www.w3.org/2000/svg" xmlns:xlink="http://www.w3.org/1999/xlink" x="0px" y="0px"
	 viewBox="0 0 40 40" style="enable-background:new 0 0 40 40;" xml:space="preserve">
<style type="text/css">
	.st0{fill-rule:evenodd;clip-rule:evenodd;fill:#FF6600;}
	.st1{fill:#FFFFFF;}
</style>
<g>
	<circle class="st0" cx="20" cy="20" r="16"/>
	<path class="st1" d="M20,9.2c6,0,10.8,4.8,10.8,10.8c0,1.2-0.2,2.3-0.6,3.4H27v-9.1l-7,7l-7-7v9.1H9.7c-0.4-1.1-0.6-2.3-0.6-3.4
		C9.1,14.1,14,9.2,20,9.2L20,9.2z M18.4,23l1.6,1.6l1.6-1.6l3.1-3.1v5.7h4.5c-2,3.2-5.5,5.2-9.2,5.2c-3.9,0-7.3-2.1-9.2-5.2h4.5
		v-5.7L18.4,23L18.4,23z"/>
</g>
</svg>
