<?xml version="1.0" encoding="utf-8"?>
<!-- Generator: Adobe Illustrator 24.0.2, SVG Export Plug-In . SVG Version: 6.00 Build 0)  -->
<svg version="1.1" id="Layer_1" xmlns="http://www.w3.org/2000/svg" xmlns:xlink="http://www.w3.org/1999/xlink" x="0px" y="0px"
	 viewBox="0 0 40 40" style="enable-background:new 0 0 40 40;" xml:space="preserve">
<style type="text/css">
	.st0{fill-rule:evenodd;clip-rule:evenodd;}
</style>
<path class="st0" d="M20,36c-8.8,0-16-7.2-16-16S11.2,4,20,4s16,7.2,16,16S28.8,36,20,36z M20,9.2C14,9.2,9.2,14.1,9.1,20
	c0,0,0,0,0,0c0,1.2,0.2,2.3,0.6,3.4h3.2v-9.1l7,7l7-7v9.1h3.2c0.4-1.1,0.6-2.3,0.6-3.4C30.8,14.1,26,9.2,20,9.2L20,9.2z M18.4,23
	l-3.1-3.1v5.7h-4.5c1.9,3.1,5.3,5.2,9.2,5.2c3.9,0,7.4-2.1,9.2-5.2h-4.5v-5.7l-3,3.1L20,24.6L18.4,23L18.4,23z"/>
</svg>
